<svg width="109" height="49" viewBox="0 0 109 49" fill="none" xmlns="http://www.w3.org/2000/svg">
<path d="M9.75429 45.0404L10.3922 45.2015C10.2585 45.7254 10.0173 46.1255 9.6688 46.4017C9.32245 46.6757 8.89829 46.8127 8.3963 46.8127C7.87678 46.8127 7.45371 46.7075 7.12709 46.497C6.80267 46.2844 6.55496 45.9775 6.38398 45.5763C6.21519 45.1752 6.1308 44.7445 6.1308 44.2841C6.1308 43.7821 6.22615 43.3448 6.41686 42.9722C6.60976 42.5973 6.88268 42.3134 7.2356 42.1205C7.59072 41.9254 7.98091 41.8279 8.40617 41.8279C8.88842 41.8279 9.29396 41.9507 9.62277 42.1962C9.95158 42.4417 10.1806 42.7869 10.31 43.2319L9.68195 43.3799C9.57016 43.0292 9.40794 42.7738 9.19531 42.6138C8.98268 42.4537 8.71525 42.3737 8.39301 42.3737C8.02255 42.3737 7.71238 42.4625 7.46248 42.6401C7.21478 42.8176 7.04051 43.0566 6.93967 43.3569C6.83884 43.655 6.78842 43.963 6.78842 44.2808C6.78842 44.6907 6.8476 45.0492 6.96598 45.356C7.08654 45.6607 7.27287 45.8887 7.52495 46.04C7.77704 46.1912 8.04996 46.2668 8.34369 46.2668C8.701 46.2668 9.00351 46.1638 9.25121 45.9578C9.49891 45.7517 9.66661 45.4459 9.75429 45.0404ZM25.6015 46.7305L27.4527 41.9101H28.1399L30.1128 46.7305H29.3861L28.8239 45.2705H26.8083L26.2789 46.7305H25.6015ZM26.9924 44.751H28.6266L28.1235 43.4161C27.9701 43.0105 27.8561 42.6773 27.7815 42.4165C27.7202 42.7256 27.6336 43.0324 27.5218 43.3371L26.9924 44.751ZM45.355 45.1818L45.9567 45.1292C45.9852 45.3703 46.051 45.5687 46.154 45.7243C46.2592 45.8778 46.4215 46.0027 46.6407 46.0992C46.8599 46.1934 47.1065 46.2405 47.3805 46.2405C47.6238 46.2405 47.8386 46.2044 48.025 46.132C48.2113 46.0597 48.3494 45.9611 48.4393 45.8361C48.5313 45.709 48.5774 45.5709 48.5774 45.4218C48.5774 45.2705 48.5335 45.139 48.4458 45.0272C48.3582 44.9132 48.2135 44.8179 48.0118 44.7412C47.8825 44.6907 47.5964 44.6129 47.1536 44.5077C46.7108 44.4003 46.4006 44.2995 46.2231 44.2052C45.9929 44.0846 45.8208 43.9356 45.7068 43.758C45.595 43.5783 45.5391 43.3777 45.5391 43.1563C45.5391 42.913 45.6082 42.6861 45.7463 42.4757C45.8844 42.263 46.0861 42.1019 46.3513 41.9923C46.6166 41.8827 46.9114 41.8279 47.2358 41.8279C47.5931 41.8279 47.9077 41.886 48.1795 42.0022C48.4535 42.1162 48.6639 42.2849 48.8108 42.5085C48.9577 42.7321 49.0366 42.9853 49.0476 43.2681L48.436 43.3141C48.4031 43.0094 48.2913 42.7793 48.1006 42.6236C47.9121 42.468 47.6326 42.3902 47.2621 42.3902C46.8763 42.3902 46.5946 42.4614 46.4171 42.6039C46.2417 42.7442 46.154 42.9141 46.154 43.1136C46.154 43.2867 46.2165 43.4292 46.3414 43.541C46.4642 43.6528 46.7842 43.7679 47.3016 43.8863C47.8211 44.0024 48.1773 44.1044 48.3702 44.1921C48.6508 44.3214 48.8579 44.4858 48.9917 44.6853C49.1254 44.8826 49.1922 45.1105 49.1922 45.3692C49.1922 45.6257 49.1188 45.8679 48.9719 46.0959C48.8251 46.3216 48.6135 46.4981 48.3373 46.6252C48.0633 46.7502 47.7542 46.8127 47.4101 46.8127C46.9739 46.8127 46.6078 46.7491 46.3119 46.622C46.0181 46.4948 45.7869 46.3041 45.6181 46.0498C45.4515 45.7934 45.3638 45.504 45.355 45.1818ZM66.2396 46.7305V42.4789H64.6515V41.9101H68.4722V42.4789H66.8775V46.7305H66.2396ZM84.0926 46.7305V41.9101H87.578V42.4789H84.7305V43.9553H87.3971V44.5209H84.7305V46.1616H87.6898V46.7305H84.0926ZM103.53 46.7305V41.9101H105.668C106.097 41.9101 106.424 41.9539 106.648 42.0416C106.871 42.1271 107.05 42.2795 107.184 42.4987C107.317 42.7179 107.384 42.9601 107.384 43.2253C107.384 43.5673 107.273 43.8556 107.052 44.0901C106.831 44.3247 106.489 44.4737 106.026 44.5373C106.195 44.6184 106.323 44.6984 106.411 44.7773C106.597 44.9483 106.774 45.162 106.94 45.4185L107.779 46.7305H106.976L106.338 45.7276C106.152 45.4382 105.999 45.2168 105.878 45.0634C105.758 44.91 105.649 44.8025 105.553 44.7412C105.458 44.6798 105.362 44.637 105.263 44.6129C105.191 44.5976 105.073 44.5899 104.908 44.5899H104.168V46.7305H103.53ZM104.168 44.0375H105.539C105.831 44.0375 106.059 44.0079 106.223 43.9487C106.388 43.8874 106.513 43.7909 106.598 43.6594C106.684 43.5257 106.726 43.381 106.726 43.2253C106.726 42.9974 106.643 42.8099 106.477 42.6631C106.312 42.5162 106.051 42.4428 105.694 42.4428H104.168V44.0375Z" fill="#1E40E0"></path>
<path d="M2.35691 8.50266H18.8553C21.6051 8.50266 23.5953 9.13117 24.8262 10.3882C26.0832 11.619 26.7117 13.6093 26.7117 16.359V19.8944C26.7117 22.068 26.3451 23.7571 25.6118 24.9618C24.9047 26.1664 23.7656 26.9652 22.1943 27.358L27.1045 36H19.4445L14.9271 27.7508H9.42766V36H2.35691V8.50266ZM19.641 16.359C19.641 14.7878 18.8553 14.0021 17.284 14.0021H9.42766V22.2513H17.284C18.8553 22.2513 19.641 21.4657 19.641 19.8944V16.359ZM53.2163 36H31.4148V8.50266H53.2163V14.0021H38.4855V19.3052H50.0737V24.8047H38.4855V30.5005H53.2163V36ZM78.9367 36H57.1352V8.50266H78.9367V14.0021H64.206V19.3052H75.7941V24.8047H64.206V30.5005H78.9367V36ZM89.9264 30.5005H104.264V36H82.8557V8.50266H89.9264V30.5005Z" fill="#1E40E0"></path>
</svg>